<svg width="20" height="20" viewBox="0 0 20 20" fill="none" xmlns="http://www.w3.org/2000/svg">
<g clip-path="url(#clip0_26_13360)">
<rect width="20" height="20" rx="8" fill="#C92236"/>
<g clip-path="url(#clip1_26_13360)">
<path d="M9.1319 5.58048C7.53895 6.00731 6.15081 6.73899 5.19934 7.61313C4.27785 8.45973 3.60986 9.60306 3.92852 10.7923C4.24718 11.9816 5.39734 12.6377 6.61867 12.9101C7.87974 13.1914 9.44774 13.131 11.0407 12.7042C12.6336 12.2774 14.0218 11.5457 14.9733 10.6715C15.8948 9.82494 16.5627 8.68162 16.2441 7.49237C15.9254 6.30312 14.7753 5.64695 13.5539 5.37452C12.2929 5.09323 10.7248 5.15365 9.1319 5.58048Z" fill="white"/>
<path d="M5.2561 13.9269C5.52493 13.689 5.93572 13.7141 6.17363 13.9829C6.42883 14.2712 7.03971 14.5466 8.0349 14.6311C8.99572 14.7126 10.1928 14.604 11.4588 14.2647C12.7247 13.9255 13.8157 13.4211 14.6071 12.8701C15.4267 12.2993 15.8181 11.7554 15.8949 11.3781C15.9665 11.0263 16.3097 10.7992 16.6615 10.8708C17.0133 10.9425 17.2404 11.2857 17.1688 11.6374C16.9904 12.5132 16.2557 13.3061 15.3499 13.9369C14.4158 14.5873 13.182 15.1489 11.7952 15.5204C10.4084 15.892 9.05913 16.0226 7.92497 15.9264C6.82515 15.8331 5.79238 15.5137 5.20013 14.8444C4.96222 14.5756 4.98728 14.1648 5.2561 13.9269Z" fill="white"/>
<path d="M5.99487 16.6826C6.2637 16.4447 6.67449 16.4697 6.91242 16.7386C7.16759 17.0269 7.7785 17.3024 8.77366 17.3868C9.73448 17.4683 10.9316 17.3596 12.1975 17.0204C13.4635 16.6812 14.5545 16.1767 15.3459 15.6258C16.1655 15.0551 16.5568 14.5111 16.6337 14.1338C16.7053 13.782 17.0485 13.5549 17.4002 13.6265C17.752 13.6981 17.9791 14.0413 17.9075 14.3931C17.7292 15.2688 16.9945 16.0619 16.0887 16.6926C15.1546 17.3431 13.9208 17.9045 12.534 18.2761C11.1472 18.6477 9.79792 18.7784 8.66376 18.6822C7.56394 18.5888 6.53115 18.2693 5.9389 17.6001C5.70097 17.3312 5.72604 16.9205 5.99487 16.6826Z" fill="white"/>
</g>
</g>
<defs>
<clipPath id="clip0_26_13360">
<rect width="20" height="20" rx="8" fill="white"/>
</clipPath>
<clipPath id="clip1_26_13360">
<rect width="16" height="16" fill="white" transform="translate(1 6.1411) rotate(-15)"/>
</clipPath>
</defs>
</svg>
