<svg width="20" height="20" viewBox="0 0 20 20" fill="none" xmlns="http://www.w3.org/2000/svg">
<g clip-path="url(#clip0_26_13358)">
<rect width="20" height="20" rx="8" fill="#34C759"/>
<g clip-path="url(#clip1_26_13358)">
<path d="M7.73379 7.24392C6.42121 7.03076 5.12034 7.8426 4.86211 9.21643C4.72162 9.96389 4.93171 10.7186 5.37889 11.2876L4.87564 11.4225C4.20881 11.6012 3.81308 12.2866 3.99176 12.9534L4.37999 14.4023C4.55867 15.0691 5.24408 15.4649 5.91092 15.2862L10.4991 14.0568L9.46379 10.1931L7.44669 10.7336C7.31798 10.7475 7.21061 10.7423 7.12086 10.7227C6.61094 10.6115 6.23117 10.0529 6.3363 9.49352C6.43311 8.97846 6.92376 8.63203 7.49333 8.72452C8.18852 8.83742 8.79326 9.34025 9.26157 9.92012C9.33592 10.0122 9.4047 10.1036 9.46771 10.192L11.3912 9.67664C11.4017 9.56881 11.4157 9.45558 11.4342 9.33899C11.5508 8.60291 11.8247 7.86409 12.3736 7.41731C12.8254 7.04959 13.4282 7.10548 13.7703 7.50264C14.1405 7.93263 14.0918 8.6056 13.7027 8.95855C13.634 9.02089 13.5426 9.07956 13.423 9.13222L11.3956 9.67545L12.4309 13.5392L17.0191 12.3098C17.6859 12.1311 18.0816 11.4457 17.9029 10.7788L17.5147 9.32994C17.336 8.66311 16.6507 8.26737 15.9838 8.44606L15.4958 8.57682C15.5994 7.8602 15.4042 7.10127 14.907 6.52387C13.994 5.46356 12.4586 5.41415 11.4268 6.25393C10.6435 6.89141 10.2561 7.78178 10.0623 8.56151C9.5063 7.98314 8.72784 7.40536 7.73379 7.24392Z" fill="white"/>
<path d="M10.7579 15.0227L5.92822 16.3168L6.9635 20.1805C7.24939 21.2475 8.34606 21.8806 9.41299 21.5947L12.3108 20.8183L10.7579 15.0227Z" fill="white"/>
<path d="M14.2424 20.3006L12.6895 14.5051L17.5191 13.211L18.5544 17.0747C18.8402 18.1417 18.2071 19.2383 17.1401 19.5242L14.2424 20.3006Z" fill="white"/>
</g>
</g>
<defs>
<clipPath id="clip0_26_13358">
<rect width="20" height="20" rx="8" fill="white"/>
</clipPath>
<clipPath id="clip1_26_13358">
<rect width="16" height="16" fill="white" transform="translate(1.66699 8.14111) rotate(-15)"/>
</clipPath>
</defs>
</svg>
