<svg width="20" height="20" viewBox="0 0 20 20" fill="none" xmlns="http://www.w3.org/2000/svg">
<g clip-path="url(#clip0_26_13362)">
<rect width="20" height="20" rx="8" fill="#7634C7"/>
<g clip-path="url(#clip1_26_13362)">
<path d="M12.1561 9.34321C11.0331 9.33775 9.94097 9.71051 9.05565 10.4014C8.35541 10.9479 7.81682 11.6682 7.48983 12.4852L8.2309 12.2866C8.76437 12.1437 9.3127 12.4603 9.45564 12.9937C9.59858 13.5272 9.28201 14.0755 8.74854 14.2185L6.07845 14.9339C5.54498 15.0769 4.99664 14.7603 4.8537 14.2268L4.01901 11.1117C3.87607 10.5782 4.19265 10.0299 4.72612 9.88695C5.25958 9.74401 5.80792 10.0606 5.95086 10.5941L6.03423 10.9052C6.48504 10.1057 7.09179 9.39708 7.82518 8.82473C9.06463 7.85745 10.5936 7.33559 12.1658 7.34324C13.738 7.35089 15.2619 7.88756 16.4919 8.86686C17.7219 9.84615 18.5864 11.211 18.9461 12.7415C19.3059 14.272 19.1398 15.8791 18.4749 17.3038C17.8099 18.7285 16.6847 19.8878 15.2805 20.595C13.8764 21.3023 12.275 21.5161 10.7344 21.2022C9.19381 20.8884 7.80375 20.065 6.78818 18.8649C6.43142 18.4432 6.48399 17.8122 6.90559 17.4555C7.32719 17.0987 7.95817 17.1513 8.31492 17.5729C9.04035 18.4302 10.0332 19.0183 11.1337 19.2425C12.2341 19.4667 13.3779 19.3139 14.3809 18.8088C15.3839 18.3036 16.1876 17.4755 16.6626 16.4578C17.1375 15.4403 17.2562 14.2923 16.9992 13.1991C16.7423 12.1059 16.1247 11.131 15.2461 10.4315C14.3675 9.73204 13.2791 9.34867 12.1561 9.34321Z" fill="white"/>
<path d="M12.3201 11.1814C12.1771 10.6479 11.6288 10.3313 11.0953 10.4743C10.5619 10.6172 10.2453 11.1656 10.3882 11.699L11.0039 13.9966C11.2022 14.7369 11.8062 15.2988 12.5589 15.4432L14.8885 15.89C15.4308 15.9941 15.9549 15.6388 16.0589 15.0964C16.163 14.554 15.8077 14.0299 15.2652 13.9259L12.9357 13.479L12.3201 11.1814Z" fill="white"/>
</g>
</g>
<defs>
<clipPath id="clip0_26_13362">
<rect width="20" height="20" rx="8" fill="white"/>
</clipPath>
<clipPath id="clip1_26_13362">
<rect width="16" height="16" fill="white" transform="translate(2.33398 8.68629) rotate(-15)"/>
</clipPath>
</defs>
</svg>
