<svg width="64" height="64" viewBox="0 0 64 64" fill="none" xmlns="http://www.w3.org/2000/svg">
<rect width="64" height="64" rx="32" fill="#F4F4F5"/>
<path d="M37.8332 24.4998C37.8332 27.7215 35.2215 30.3332 31.9998 30.3332C28.7782 30.3332 26.1665 27.7215 26.1665 24.4998C26.1665 21.2782 28.7782 18.6665 31.9998 18.6665C35.2215 18.6665 37.8332 21.2782 37.8332 24.4998Z" fill="#A1A1AA"/>
<path d="M42 39.4998C42 42.7215 37.5228 45.3332 32 45.3332C26.4772 45.3332 22 42.7215 22 39.4998C22 36.2782 26.4772 33.6665 32 33.6665C37.5228 33.6665 42 36.2782 42 39.4998Z" fill="#A1A1AA"/>
<path d="M23.8702 20.3335C24.166 20.3335 24.4548 20.3625 24.7336 20.4178C24.0543 21.6243 23.6668 23.017 23.6668 24.5002C23.6668 25.9473 24.0357 27.3082 24.6845 28.4941C24.4209 28.5432 24.1487 28.5689 23.8702 28.5689C21.5129 28.5689 19.6019 26.7254 19.6019 24.4512C19.6019 22.1771 21.5129 20.3335 23.8702 20.3335Z" fill="#A1A1AA"/>
<path d="M21.0791 43.6434C20.1325 42.512 19.5002 41.1235 19.5002 39.5002C19.5002 37.9264 20.0945 36.5735 20.9931 35.4614C17.8187 35.7076 15.3335 37.4438 15.3335 39.5491C15.3335 41.6742 17.8623 43.4232 21.0791 43.6434Z" fill="#A1A1AA"/>
<path d="M40.3334 24.5002C40.3334 25.9473 39.9645 27.3082 39.3157 28.4941C39.5793 28.5432 39.8515 28.5689 40.1299 28.5689C42.4873 28.5689 44.3983 26.7254 44.3983 24.4512C44.3983 22.1771 42.4873 20.3335 40.1299 20.3335C39.8342 20.3335 39.5454 20.3625 39.2666 20.4178C39.9459 21.6243 40.3334 23.017 40.3334 24.5002Z" fill="#A1A1AA"/>
<path d="M42.9211 43.6434C46.1379 43.4232 48.6667 41.6742 48.6667 39.5491C48.6667 37.4438 46.1815 35.7076 43.0071 35.4614C43.9057 36.5735 44.5 37.9264 44.5 39.5002C44.5 41.1235 43.8677 42.512 42.9211 43.6434Z" fill="#A1A1AA"/>
</svg>
