<svg width="25" height="24" viewBox="0 0 25 24" fill="none" xmlns="http://www.w3.org/2000/svg">
<path d="M9.65316 5.40838C10.9198 3.13613 11.5531 2 12.5 2C13.4469 2 14.0802 3.13612 15.3468 5.40837L15.6745 5.99623C16.0345 6.64193 16.2144 6.96479 16.4951 7.17781C16.7757 7.39083 17.1251 7.4699 17.8241 7.62805L18.4605 7.77203C20.9201 8.32856 22.15 8.60682 22.4426 9.54773C22.7352 10.4886 21.8968 11.4691 20.2199 13.4299L19.7861 13.9372C19.3096 14.4944 19.0713 14.773 18.9641 15.1177C18.857 15.4624 18.893 15.8341 18.965 16.5776L19.0306 17.2544C19.2841 19.8706 19.4109 21.1787 18.6449 21.7602C17.8788 22.3417 16.7273 21.8115 14.4243 20.7512L13.8285 20.4768C13.1741 20.1755 12.8469 20.0248 12.5 20.0248C12.1531 20.0248 11.8259 20.1755 11.1715 20.4768L10.5757 20.7512C8.27268 21.8115 7.12118 22.3417 6.35515 21.7602C5.58912 21.1787 5.71588 19.8706 5.9694 17.2544L6.03498 16.5776C6.10703 15.8341 6.14305 15.4624 6.03586 15.1177C5.92868 14.773 5.69043 14.4944 5.21392 13.9372L4.7801 13.4299C3.10325 11.4691 2.26482 10.4886 2.55742 9.54773C2.85002 8.60682 4.07986 8.32856 6.53954 7.77203L7.17589 7.62805C7.87485 7.4699 8.22433 7.39083 8.50494 7.17781C8.78555 6.96479 8.96553 6.64194 9.32547 5.99623L9.65316 5.40838Z" fill="#F59E0B"/>
</svg>
