<svg width="25" height="24" viewBox="0 0 25 24" fill="none" xmlns="http://www.w3.org/2000/svg">
<g clip-path="url(#clip0_453_17704)">
<path d="M19.9344 12.2244H19.209C19.1973 12.2253 19.1862 12.2303 19.1779 12.2386C19.1695 12.247 19.1645 12.258 19.1637 12.2698V14.5711C19.0053 14.6164 18.8464 14.6391 18.6653 14.6391C18.1893 14.6391 18.076 14.4919 18.076 13.857V12.2698C18.0751 12.258 18.0701 12.247 18.0618 12.2386C18.0534 12.2303 18.0424 12.2253 18.0306 12.2244H17.3058C17.2941 12.2253 17.283 12.2303 17.2747 12.2386C17.2663 12.247 17.2613 12.258 17.2605 12.2698V13.9364C17.2605 14.9791 17.6117 15.3762 18.5066 15.3762C19.0165 15.3762 19.5944 15.2402 19.9344 15.1154C19.9456 15.1039 19.9568 15.0927 19.9568 15.0812V12.27C19.9794 12.2474 19.9568 12.2247 19.9344 12.2247V12.2244ZM4.57089 12.2359H3.83436C3.81169 12.2359 3.80049 12.2471 3.80049 12.2698C3.68716 12.7231 3.44929 13.494 3.13196 14.2991L2.39569 12.2586C2.38422 12.2471 2.37302 12.2359 2.36156 12.2359H1.61382C1.60236 12.2359 1.59116 12.2471 1.57969 12.2586C1.56849 12.2698 1.56849 12.2812 1.57969 12.2924L2.69009 15.3308C2.59148 15.5385 2.48564 15.7426 2.37276 15.9428C2.29356 16.0788 2.22556 16.2148 2.15756 16.3623C2.14636 16.3738 2.14636 16.385 2.15756 16.3964C2.16902 16.4076 2.18022 16.4191 2.19169 16.4191H2.99596C3.00742 16.4191 3.03009 16.4076 3.03009 16.3964C3.19733 16.0698 3.35228 15.7371 3.49462 15.3988C3.97036 14.2876 4.34422 13.2447 4.62769 12.2924C4.62769 12.2812 4.62769 12.2698 4.61622 12.2586C4.59356 12.2359 4.58236 12.2359 4.57089 12.2359ZM7.21089 14.5711C7.21051 14.5652 7.208 14.5597 7.20383 14.5555C7.19966 14.5513 7.19411 14.5488 7.18822 14.5484H7.15409C6.97276 14.6164 6.64422 14.6618 6.41756 14.6618C5.90796 14.6618 5.66982 14.5258 5.66982 13.7551C5.66982 13.1314 5.74929 12.8479 6.41756 12.8479C6.61036 12.8479 6.78022 12.8706 7.00689 12.9386C7.02956 12.9386 7.04076 12.9386 7.05222 12.9159L7.34662 12.3266V12.2924C7.34625 12.2866 7.34374 12.281 7.33956 12.2768C7.33539 12.2727 7.32984 12.2702 7.32396 12.2698C7.01167 12.1749 6.6874 12.1252 6.36102 12.1223C5.30742 12.1223 4.83142 12.6212 4.83142 13.7436C4.83142 14.8772 5.30742 15.3874 6.36102 15.3874C6.62156 15.3874 7.15409 15.3308 7.40342 15.2287C7.42609 15.2172 7.43729 15.1946 7.42609 15.1719L7.21089 14.5711ZM14.1106 12.2359H13.3744C13.3517 12.2359 13.3402 12.2471 13.3402 12.2698C13.2269 12.7346 12.989 13.494 12.6717 14.2991L11.9354 12.2586C11.924 12.2471 11.9128 12.2359 11.9013 12.2359H11.1536C11.1424 12.2359 11.1309 12.2471 11.1197 12.2586C11.1082 12.2698 11.1082 12.2812 11.1197 12.2924L12.2298 15.3308C12.1312 15.5385 12.0254 15.7426 11.9125 15.9428C11.8333 16.0788 11.7653 16.2148 11.6973 16.3623C11.6861 16.3738 11.6861 16.385 11.6973 16.3964C11.7088 16.4076 11.72 16.4191 11.7314 16.4191H12.5357C12.5472 16.4191 12.5698 16.4076 12.5698 16.3964C12.7371 16.0698 12.892 15.7371 13.0344 15.3988C13.4989 14.2876 13.884 13.2447 14.1674 12.2924C14.1674 12.2812 14.1674 12.2698 14.156 12.2586C14.1333 12.2359 14.1221 12.2359 14.1106 12.2359ZM16.8298 12.2244H14.6885C14.6767 12.2253 14.6657 12.2303 14.6573 12.2386C14.649 12.247 14.644 12.258 14.6432 12.2698V15.2514C14.6432 15.274 14.6658 15.2967 14.6885 15.2967H15.4138C15.4362 15.2967 15.4592 15.274 15.4592 15.2514V12.9386H16.5805C16.592 12.9386 16.6146 12.9274 16.6146 12.9159C16.7053 12.7119 16.7845 12.4964 16.8752 12.2812V12.2471C16.8525 12.2359 16.8413 12.2244 16.8298 12.2244Z" fill="#FF1743"/>
<path d="M5.43048 7.64403C4.38808 7.64403 3.98035 8.09737 3.98035 9.24243C3.98035 10.4102 4.38835 10.8638 5.43048 10.8638C6.48408 10.8638 6.89182 10.4102 6.89182 9.24243C6.89182 8.09737 6.48408 7.64403 5.43048 7.64403ZM5.43048 10.2062C4.95475 10.2062 4.80728 10.0814 4.80728 9.2651C4.80728 8.40377 4.96595 8.3243 5.43048 8.3243C5.90648 8.3243 6.06515 8.4035 6.06515 9.2651C6.06515 10.0702 5.91768 10.2062 5.43048 10.2062ZM9.79262 10.0814C9.79224 10.0755 9.78973 10.0699 9.78556 10.0658C9.78139 10.0616 9.77584 10.0591 9.76995 10.0587H9.73582C9.55448 10.1267 9.22595 10.172 8.99955 10.172C8.48968 10.172 8.25155 10.036 8.25155 9.26537C8.25155 8.64137 8.31955 8.35817 8.99955 8.35817C9.19208 8.35817 9.36222 8.38084 9.58862 8.44884C9.61128 8.44884 9.62248 8.44884 9.63395 8.42617L9.92835 7.83684V7.8027C9.92797 7.79681 9.92546 7.79127 9.92129 7.78709C9.91712 7.78292 9.91157 7.78041 9.90568 7.78003C9.59348 7.68516 9.2693 7.6355 8.94302 7.63257C7.88915 7.63257 7.41315 8.13124 7.41315 9.2539C7.41315 10.3872 7.88915 10.8976 8.94275 10.8976C9.20328 10.8976 9.73582 10.8408 9.98515 10.739C10.0078 10.7275 10.019 10.7048 10.0078 10.6822L9.79262 10.0814ZM1.61235 7.7347C1.60059 7.73551 1.58953 7.74055 1.58119 7.74888C1.57286 7.75721 1.56783 7.76828 1.56702 7.78003V10.7614C1.56702 10.7843 1.58968 10.8067 1.61235 10.8067H2.33768C2.36008 10.8067 2.38302 10.7843 2.38302 10.7614V8.44884H3.50435C3.51582 8.44884 3.53848 8.43764 3.53848 8.42617C3.62915 8.22217 3.70835 8.0067 3.79902 7.7915V7.75737C3.78755 7.7459 3.77635 7.7347 3.76488 7.7347H1.61235Z" fill="#0077FF"/>
<path fill-rule="evenodd" clip-rule="evenodd" d="M23.3202 14.9794V14.9341C23.3202 14.9114 23.3202 14.8773 23.3317 14.8546C23.3656 14.4352 23.3882 13.925 23.4109 13.3354V13.2901L23.4336 12.0205C23.4336 11.5784 23.4224 11.1474 23.4109 10.7506V10.7053L23.3317 9.18635C23.3317 9.16342 23.3317 9.12955 23.3202 9.10688V9.06155C23.3202 9.01622 23.309 8.98209 23.309 8.93675V8.89142C23.2749 8.44929 23.2522 8.17729 23.241 8.15462C23.241 8.10929 23.2296 8.06395 23.2296 8.02982V7.99595C23.2199 7.91941 23.2048 7.84365 23.1842 7.76929C23.1842 7.75782 23.1842 7.74635 23.173 7.73515C22.9805 6.81675 22.4706 5.80795 21.836 5.04822C21.5869 4.75355 21.3261 4.49275 21.0544 4.28875C20.0307 3.534 18.9679 2.83391 17.8704 2.19142C16.205 1.20502 14.7096 0.524751 14.517 0.434085C14.5056 0.434085 14.5056 0.422885 14.5056 0.422885C14.0637 0.230085 13.5312 0.0940846 12.9536 0.0375513C12.8402 0.0260846 12.7269 0.0148846 12.6136 0.0148846C12.5114 0.0148846 12.4096 0.00341797 12.3077 0.00341797H12.149C11.3672 0.0148846 10.6536 0.162085 10.0869 0.422885C9.99622 0.457018 8.48955 1.14822 6.77862 2.14608L6.71062 2.17995C5.6174 2.83337 4.55502 3.53706 3.52689 4.28875C3.09649 4.60608 2.71115 5.01408 2.35995 5.53569C2.28075 5.66048 2.28075 5.95515 2.62049 5.95515H3.49302C3.86689 5.95515 3.95755 5.72848 4.37675 5.42235C4.84129 5.08235 5.75889 4.40208 7.43569 3.40448C8.64795 2.69035 9.78102 2.13462 10.3248 1.87382C10.3362 1.87382 10.3474 1.86262 10.3589 1.86262C10.3589 1.86262 10.3701 1.86262 10.3701 1.85142C10.3701 1.85142 10.3816 1.85142 10.3816 1.83995C10.3928 1.83995 10.4042 1.82875 10.4042 1.82875C10.4154 1.82875 10.4269 1.81728 10.4381 1.81728C10.5741 1.74928 10.6648 1.71515 10.6648 1.71515C11.0501 1.54528 11.5938 1.43195 12.1714 1.42048H12.3981C12.5682 1.42048 12.7381 1.43195 12.8968 1.45462C13.248 1.49995 13.5653 1.56795 13.8258 1.68128C13.8485 1.69248 13.8824 1.70395 13.905 1.71515C15.0117 2.23004 16.0931 2.79753 17.1456 3.41568C18.1983 4.03685 19.2192 4.7104 20.2045 5.43382C20.4197 5.59248 20.6352 5.81915 20.8392 6.06848C21.3488 6.72608 21.768 7.62182 21.836 8.31328C21.836 8.32475 21.8701 8.59675 21.904 9.06155C21.904 9.09542 21.904 9.11808 21.9154 9.15222V9.22022C21.9154 9.26555 21.9266 9.29968 21.9266 9.34502V9.39035C21.9266 9.41302 21.9266 9.44689 21.9381 9.46955C21.9381 9.52635 21.9493 9.58289 21.9493 9.63969C21.9493 9.67382 21.9493 9.70769 21.9608 9.74182V9.76449C21.9608 9.80982 21.9608 9.84369 21.972 9.88902V9.97968C22.0485 11.3317 22.0485 12.6864 21.972 14.0384V14.129C21.972 14.1744 21.972 14.2085 21.9608 14.2538V14.2765C21.9608 14.3104 21.9608 14.3445 21.9493 14.3784C21.9493 14.4352 21.9381 14.492 21.9381 14.5485C21.9381 14.5826 21.9381 14.6053 21.9266 14.628V14.6733C21.9266 14.7186 21.9154 14.7525 21.9154 14.7978V14.8661C21.9154 14.9 21.9154 14.9341 21.904 14.9568C21.8701 15.4216 21.836 15.7048 21.836 15.7048C21.768 16.3965 21.3488 17.292 20.8389 17.9496C20.6352 18.2104 20.4197 18.4258 20.2045 18.5842C20.1933 18.5842 19.8986 18.8112 19.4114 19.1512C17.6845 20.3494 15.8574 21.3963 13.9504 22.2802L13.905 22.3029C13.8824 22.3144 13.8485 22.3256 13.8258 22.337C13.5653 22.4389 13.248 22.5184 12.8968 22.5637C12.7381 22.5864 12.5682 22.5976 12.3981 22.5976H12.1714C11.5938 22.5864 11.0501 22.4842 10.6648 22.3029C10.6648 22.3029 10.5856 22.269 10.4381 22.2008C10.4269 22.1896 10.4042 22.1896 10.3928 22.1781C10.3816 22.1669 10.3701 22.1669 10.3589 22.1554C10.3474 22.1554 10.3474 22.1442 10.3362 22.1442C10.3248 22.1442 10.3136 22.1328 10.3024 22.1328C10.2909 22.1216 10.2797 22.1216 10.257 22.1101H10.2456C9.28393 21.6523 8.3426 21.1531 7.42422 20.6138C5.73622 19.6274 4.82982 18.936 4.36555 18.5957C3.94609 18.2896 3.85542 18.0629 3.48155 18.0629H2.62049C2.28075 18.0629 2.28075 18.3578 2.35995 18.4709C2.71115 18.9928 3.09649 19.4008 3.52689 19.7181C3.58369 19.7634 4.96582 20.7837 6.71089 21.8154C6.80129 21.8722 6.89195 21.9288 6.99382 21.9741C8.61409 22.9037 10.0077 23.5386 10.0872 23.584C10.6421 23.8333 11.3672 23.9808 12.1378 24.0034H12.2962C12.3984 24.0034 12.5002 24.0034 12.6021 23.992C12.7154 23.992 12.8288 23.9808 12.9421 23.9693C13.52 23.9128 14.0637 23.7768 14.4941 23.584C14.4941 23.584 14.5056 23.584 14.5056 23.5728C14.6981 23.4821 16.1936 22.7904 17.8592 21.8154C18.6574 21.3428 19.4396 20.8437 20.2045 20.3189L21.0429 19.7181C21.3149 19.5141 21.5754 19.2533 21.8248 18.9586C22.4594 18.1989 22.969 17.1901 23.1616 16.2717C23.1616 16.2605 23.1616 16.249 23.173 16.2378C23.1842 16.1584 23.2069 16.0789 23.2184 16.0112V15.9768C23.2296 15.9314 23.2296 15.8861 23.2296 15.852C23.2296 15.8293 23.2637 15.5573 23.2976 15.1152V15.0698C23.3202 15.0584 23.3202 15.0133 23.3202 14.9794Z" fill="url(#paint0_linear_453_17704)"/>
<path d="M10.5395 12.2246H8.31872C8.29605 12.2246 8.28485 12.2361 8.27339 12.2587C8.21685 13.2675 8.02432 14.3446 7.75232 15.2289C7.75232 15.2401 7.75232 15.2515 7.76352 15.2627C7.77499 15.2742 7.78619 15.2742 7.79765 15.2742H8.55685C8.57925 15.2742 8.59072 15.2627 8.59072 15.2515C8.80592 14.5715 8.97605 13.687 9.04405 12.9387H9.76912V15.2401C9.76912 15.2627 9.79179 15.2854 9.81445 15.2854H10.5395C10.5622 15.2854 10.5849 15.2627 10.5849 15.2401V12.2587C10.5849 12.2473 10.5622 12.2246 10.5395 12.2246Z" fill="#EF3054"/>
</g>
<defs>
<linearGradient id="paint0_linear_453_17704" x1="12.7669" y1="0.00341797" x2="12.7669" y2="24.0034" gradientUnits="userSpaceOnUse">
<stop offset="0.4" stop-color="#0077FF"/>
<stop offset="0.66" stop-color="#FF1743"/>
</linearGradient>
<clipPath id="clip0_453_17704">
<rect width="24" height="24" fill="white" transform="translate(0.5 0.00170898)"/>
</clipPath>
</defs>
</svg>
