<svg width="24" height="24" viewBox="0 0 24 24" fill="none" xmlns="http://www.w3.org/2000/svg">
   <path
      d="M18 8C18 11.3137 15.3137 14 12 14C8.68629 14 6 11.3137 6 8C6 4.68629 8.68629 2 12 2C15.3137 2 18 4.68629 18 8Z"
      fill="#16A34A" />
   <path
      d="M5.03349 10.7834C3.22163 11.816 2 13.7653 2 16C2 19.3137 4.68629 22 8 22C11.3137 22 14 19.3137 14 16C14 15.7437 13.9839 15.4911 13.9527 15.2432C13.3301 15.4107 12.6755 15.5 12 15.5C8.84139 15.5 6.13882 13.5474 5.03349 10.7834Z"
      fill="#16A34A" />
   <path
      d="M15.3876 14.6937C15.4621 15.1179 15.5009 15.5544 15.5009 16C15.5009 18.0907 14.6455 19.9815 13.2656 21.3417C14.0859 21.7625 15.0157 22 16.0009 22C19.3147 22 22.0009 19.3137 22.0009 16C22.0009 13.7654 20.7793 11.8161 18.9675 10.7835C18.2886 12.4811 17.0071 13.8727 15.3876 14.6937Z"
      fill="#16A34A" />
</svg>
   